<svg xmlns="http://www.w3.org/2000/svg" width="414.907" height="414.666" viewBox="0 0 414.907 414.666"><defs><style>.a{fill:#e7e9e6;}.b{fill:#8d54fe;}.c{fill:#f9d6b4;}.d{fill:#95a0b6;}.e{fill:#f8d6b4;}.f{fill:#e7e8e6;}.g{fill:#efbcb0;}.h{fill:#b0d8da;}.i{fill:#fe995b;}.j{fill:#945ffd;}.k{fill:#f8d5b4;}.l{fill:#eebaaf;}.m{fill:#76cccf;}.n{fill:#9c66f2;}</style></defs><g transform="translate(0 0.007)"><path class="a" d="M405.3,295.971l3.3,9.7c-2.613.257-5.347.107-7.811.85-14.907,4.526-26.173,14.457-36.468,25.531-1.214,1.3-.978,4.94-.143,6.982,5.861,14.379,12.266,28.558,18.084,42.929,4.284,10.616,7.953,21.483,12.137,32.934-6.054,0-10.93-.336-15.75.057-19.641,1.578-39.267,3.72-58.893,5a220.4,220.4,0,0,1-33.284-.093c-13.194-1.157-24.431,1.749-33.741,11.294-.064-12.137.421-24.645-8.41-34.269-6.218-6.79-12.9-12.894-13.729-22.76l20.469-74.835q2.413-4.841,4.812-9.667l3.277-7.582c28.715-.892,48.634-18.869,49.419-44.6,5.711-5,11.423-10,17.249-14.921,4.962-4.2,10.052-8.239,15.093-12.351l16.992,3.57c14.514,7.1,19.8,20.6,25.316,34.526,6.04,15.285,13.715,29.921,20.7,44.835l-.114-.164Z" transform="translate(-74.373 -67.262)"/><path class="b" d="M315.585,152.9c-5.04,4.112-10.131,8.153-15.093,12.351-5.811,4.9-11.509,9.938-17.256,14.921-9.1-3.912-13-10.709-11.423-20.54q1.8-11.13,3.57-22.261l1.285-3.363,11.159-5.647-7.711-7.325c-1.235-3.7-2.9-7.311-3.62-11.1-1.756-9.324-2.977-18.748-4.6-28.1-1.5-8.567-4.5-15.971-13.215-20.269a19.1,19.1,0,0,1-8.332-9.046c-1.756-4.105-4.084-4.284-7.746-4.755-9.859-1.257-19.619-3.256-29.414-4.962-1.264-.221-3.006-1.135-3.712-.614-6.725,4.948-15.278,8.931-19.276,15.6-4.162,6.825-3.8,16.356-5.34,24.317l17.292,4.584c-.086.935-.164,1.871-.25,2.806l-16.085,2.356c-.821,6.575-1.257,12.487-2.342,18.277-3.4,18.2-6.425,36.247.914,54.367,6.9,17.135,13.172,34.469,19.712,51.718-17.063-3.57-19.212-19.205-25.759-31.535a55.178,55.178,0,0,0,3.056,13.651c1.692,4.448,4.112,8.624,6.918,14.372L177,210.2c-13.322-7.568-21.661-18.891-25.8-33.662l-.614,11.03a75.95,75.95,0,0,1-8.117-43.093c1.521-15.992,7.039-30.4,14.593-44.743,7.682-14.579,13.136-30.6,17.563-46.549,7.589-27.394,26.651-39.367,53.067-42.515a113.944,113.944,0,0,1,22.068-.264c4.9.371,10.709,1.071,14.279,3.927,9.917,7.932,22.132,15.4,27.587,26.037C309.524,75.409,318.227,113.134,315.585,152.9Z" transform="translate(-49.05 -10)"/><path class="c" d="M255.872,469.385c9.281-9.538,20.547-12.444,33.741-11.287a220.4,220.4,0,0,0,33.284.093c19.655-1.257,39.267-3.4,58.893-5,4.819-.393,9.7-.057,15.75-.057-4.191-11.423-7.853-22.318-12.137-32.934-5.819-14.393-12.223-28.558-18.084-42.929-.835-2.042-1.071-5.712.143-6.982,10.295-11.073,21.561-21,36.468-25.531,2.463-.714,5.2-.593,7.811-.85,12.979,37.075,26.651,73.928,38.46,111.375,2.991,9.481.043,20.833-.179,31.321-3.484,3.227-6.575,8.61-10.516,9.331-25.045,4.576-50.561,5.262-75.521.885-31.142-5.462-61.927-12.851-93.847-11.851l-1.464.043H254.4l-12.851-.086v-1.192Z" transform="translate(-77.508 -105.52)"/><path class="d" d="M205.519,541.176h6.518l.714.086.714-.128c31.92-1.014,62.705,6.425,93.847,11.851,24.988,4.376,50.476,3.691,75.521-.885,3.941-.714,7.032-6.1,10.516-9.331,9.9-1.221,17.349,3.777,24.188,9.852a195.17,195.17,0,0,1,14.729,14.457c1.763,1.935,2.377,4.9,3.52,7.389-2.42.628-4.826,1.742-7.254,1.8-6.882.15-13.772-.093-20.661-.243-41.287-.878-82.539-2.427-123.812-2.52-73.357-.114-146.722.714-220.079,1.049a113.626,113.626,0,0,1-14.993-1.228c-1.863-.243-3.57-1.428-5.4-2.142,1.135-2.185,1.721-5.1,3.5-6.425,5.712-4.284,12.665-7.139,17.7-11.98,11.744-11.373,25.952-13.036,41.052-12.565,1.506,1.763,3.041,3.513,4.534,5.3,8.4,10.067,14.093,10.752,24.831,3.234,4.284-2.97,8.731-5.626,13.1-8.424h34.9l1.742.714,12.851.093Z" transform="translate(-20.88 -161.654)"/><path class="e" d="M171.173,479.587c-4.369,2.8-8.846,5.455-13.1,8.425-10.709,7.518-16.421,6.832-24.831-3.234-1.492-1.792-3.027-3.57-4.534-5.3q-2.592-14.465-5.2-28.936a48.044,48.044,0,0,0,3.291-6.1c5.712-15.314,12.6-29.921,22.846-42.836,4.434-5.612,8.089-11.83,12.094-17.777,1.464-1.314,3.384-2.37,4.319-3.991C173.2,367.505,180,355,187.186,342.7c3.006-5.148,6.668-9.909,10.031-14.843l23.21,5.1L199.966,407.75c-1.678,7.639-3.5,15.25-5,22.925-2.913,14.936-5.547,29.9-17.556,40.995C174.971,473.918,173.236,476.931,171.173,479.587Z" transform="translate(-43.741 -100.929)"/><path class="f" d="M206.212,306.909c-3.37,4.933-7.032,9.7-10.038,14.843-7.182,12.287-13.993,24.8-21.125,37.125-.935,1.621-2.856,2.677-4.319,4l-15.8-10.909c1.007-15.214,2.4-30.421,2.92-45.657.543-15.749,6.918-23.517,22.846-26.109l11.33,2.492c-2.806-5.747-5.226-9.924-6.918-14.372a55.18,55.18,0,0,1-3.056-13.651c6.547,12.33,8.7,27.965,25.759,31.535.3,3.441.607,6.9.907,10.345Z" transform="translate(-52.729 -79.992)"/><path class="g" d="M145.942,390.94l15.8,10.909c-4.005,5.94-7.661,12.137-12.094,17.77-10.245,12.937-17.135,27.544-22.846,42.836a48.539,48.539,0,0,1-3.291,6.1c2.327-9.046,4.391-18.163,7.039-27.13,4.334-14.614,9.053-29.107,13.565-43.665C144.828,395.552,145.342,393.232,145.942,390.94Z" transform="translate(-43.741 -118.973)"/><path class="h" d="M454.891,294.5c-6.961-14.914-14.636-29.55-20.7-44.835-5.512-13.922-10.8-27.43-25.316-34.526,10.638,1.428,19.655,6.368,23.56,16.314C440.569,252.222,447.516,273.455,454.891,294.5Z" transform="translate(-125.371 -68.684)"/><path class="i" d="M477.484,89.536,449.64,91.392c3.891-6.483,21.482-8.11,27.758-4.855Z" transform="translate(-137.034 -31.43)"/><path class="i" d="M445.18,62.249l24-14.629q1.114,1.756,2.22,3.513L447.943,66.754Z" transform="translate(-135.758 -20.763)"/><path class="i" d="M11.78,301.222,36.589,287C35.5,294.889,19.9,303.8,11.78,301.222Z" transform="translate(-11.78 -89.24)"/><path class="i" d="M34,330.026,49.493,304.71C52.562,312.67,44.167,325.821,34,330.026Z" transform="translate(-18.136 -94.306)"/><path class="i" d="M448.708,30.151q-5,11.116-10.059,22.239L435.5,50.962c.75-8.6,4.576-15.8,10.181-22.182Z" transform="translate(-132.989 -15.374)"/><path class="i" d="M73.211,312.14v24.4C67.6,330.81,66.929,319.822,73.211,312.14Z" transform="translate(-28.076 -96.432)"/><path class="j" d="M474.691,329.126l-1.521-3.056Z" transform="translate(-143.765 -100.417)"/><path class="k" d="M220.175,239.4c-.3-3.448-.607-6.9-.907-10.345-6.54-17.249-12.808-34.612-19.712-51.718-7.311-18.12-4.284-36.168-.914-54.367,1.085-5.79,1.521-11.7,2.342-18.277l16.085-2.356c.086-.935.164-1.871.25-2.806L200.014,94.96c1.528-7.953,1.164-17.484,5.29-24.274,4.034-6.668,12.587-10.652,19.276-15.6.714-.521,2.449.393,3.712.614,9.8,1.706,19.555,3.705,29.414,4.962,3.662.471,5.99.65,7.746,4.755a19.1,19.1,0,0,0,8.382,9c8.71,4.284,11.716,11.694,13.215,20.269,1.628,9.353,2.856,18.777,4.6,28.1.714,3.791,2.385,7.4,3.62,11.1l-3.448,12.972-1.285,3.363c-.964,1.2-2.235,2.263-2.856,3.627-10.3,23.167-31.927,30.628-53.367,39.417,1.385,1.906,3.191,4.412,5,6.9,5.712,7.753,13.329,14.629,11.216,25.816-.714,3.848-1.064,7.761-1.585,11.644l-3.241,7.582c-4.141.057-8.467.914-12.365,0C228.757,244.067,224.552,241.4,220.175,239.4Zm52.66-130.58.557.828a1.127,1.127,0,0,0-.05-.443,2.635,2.635,0,0,0-.6-.307c-5.048-9.931-13.443-12.266-30.128-7.139,3.47,2.142,5.654,4.448,8.132,4.833C258.057,107.74,265.482,108.132,272.836,108.825Z" transform="translate(-64.208 -22.854)"/><path class="l" d="M264.729,275.811c.521-3.884.864-7.8,1.585-11.644,2.142-11.188-5.519-18.063-11.216-25.816-1.828-2.485-3.634-5-5-6.9,21.418-8.789,43.072-16.249,53.367-39.417.607-1.364,1.878-2.427,2.856-3.627q-1.778,11.137-3.57,22.261c-1.592,9.845,2.306,16.628,11.423,20.54C313.362,256.941,293.443,274.918,264.729,275.811Z" transform="translate(-79.954 -61.038)"/><path class="m" d="M229.242,313.32c4.376,1.992,8.567,4.662,13.165,5.776,3.9.942,8.225.086,12.365,0q-2.406,4.826-4.812,9.667l-23.21-5.1Q228.007,318.5,229.242,313.32Z" transform="translate(-73.274 -96.769)"/><path class="l" d="M330.6,178.5l3.448-12.972,7.711,7.325Z" transform="translate(-102.981 -54.493)"/><path class="e" d="M267.3,541.59h0Z" transform="translate(-82.657 -162.068)"/><path class="e" d="M239.15,540.223l1.742-.443v1.192Z" transform="translate(-76.821 -161.55)"/><path class="e" d="M281.008,541.52l-.714.128-.714-.086Z" transform="translate(-88.387 -162.048)"/><path class="n" d="M291.891,126.526c-7.368-.714-14.793-1.078-22.089-2.235-2.477-.386-4.662-2.692-8.132-4.833,16.685-5.112,25.081-2.777,30.128,7.139Z" transform="translate(-83.263 -40.562)"/><path class="n" d="M303.89,130.5a2.635,2.635,0,0,1,.6.307c.079.071,0,.293.05.443l-.557-.835Z" transform="translate(-95.341 -44.446)"/></g></svg>