<svg id="Layer_2" data-name="Layer 2" xmlns="http://www.w3.org/2000/svg" viewBox="0 0 581.15 580.8"><defs><style>.cls-1{fill:#e7e9e6;}.cls-2{fill:#8d54fe;}.cls-3{fill:#f9d6b4;}.cls-4{fill:#95a0b6;}.cls-5{fill:#f8d6b4;}.cls-6{fill:#e7e8e6;}.cls-7{fill:#efbcb0;}.cls-8{fill:#945ffd;}.cls-9{fill:#fe995b;}.cls-10{fill:#f8d5b4;}.cls-11{fill:#eebaaf;}.cls-12{fill:#8e56fe;}.cls-13{fill:#9c66f2;}</style></defs><title>girl</title><path class="cls-1" d="M475.3,330.35l4.62,13.59c-3.66.36-7.49.15-10.94,1.19-20.88,6.34-36.66,20.25-51.08,35.76-1.7,1.82-1.37,6.92-.2,9.78,8.21,20.14,17.18,40,25.33,60.13,6,14.87,11.14,30.09,17,46.13-8.48,0-15.31-.47-22.06.08-27.51,2.21-55,5.21-82.49,7a308.71,308.71,0,0,1-46.62-.13c-18.48-1.62-34.22,2.45-47.26,15.82-.09-17,.59-34.52-11.78-48-8.71-9.51-18.07-18.06-19.23-31.88L259.26,335q3.38-6.78,6.74-13.54l4.59-10.62c40.22-1.25,68.12-26.43,69.22-62.47,8-7,16-14,24.16-20.9,6.95-5.88,14.08-11.54,21.14-17.3l23.8,5c20.33,9.94,27.74,28.86,35.46,48.36,8.46,21.41,19.21,41.91,29,62.8l-.16-.23Z" transform="translate(-11.78 -10)"/><path class="cls-2" d="M385.11,210.16c-7.06,5.76-14.19,11.42-21.14,17.3-8.14,6.87-16.12,13.92-24.17,20.9-12.75-5.48-18.21-15-16-28.77q2.52-15.59,5-31.18l1.8-4.71,15.63-7.91-10.8-10.26c-1.73-5.18-4.06-10.24-5.07-15.55-2.46-13.06-4.17-26.26-6.45-39.36-2.1-12-6.31-22.37-18.51-28.39a26.76,26.76,0,0,1-11.67-12.67c-2.46-5.75-5.72-6-10.85-6.66-13.81-1.76-27.48-4.56-41.2-6.95-1.77-.31-4.21-1.59-5.2-.86-9.42,6.93-21.4,12.51-27,21.85C203.65,86.5,204.16,99.85,202,111l24.22,6.42c-.12,1.31-.23,2.62-.35,3.93l-22.53,3.3c-1.15,9.21-1.76,17.49-3.28,25.6-4.76,25.49-9,50.77,1.28,76.15,9.67,24,18.45,48.28,27.61,72.44-23.9-5-26.91-26.9-36.08-44.17a77.29,77.29,0,0,0,4.28,19.12c2.37,6.23,5.76,12.08,9.69,20.13L191,290.42c-18.66-10.6-30.34-26.46-36.14-47.15L154,258.72c-10.49-20.88-13.29-40.2-11.37-60.36,2.13-22.4,9.86-42.58,20.44-62.67,10.76-20.42,18.4-42.86,24.6-65.2C198.3,32.12,225,15.35,262,10.94a159.6,159.6,0,0,1,30.91-.37c6.87.52,15,1.5,20,5.5,13.89,11.11,31,21.57,38.64,36.47C376.62,101.62,388.81,154.46,385.11,210.16Z" transform="translate(-11.78 -10)"/><path class="cls-3" d="M261.61,519.66c13-13.36,28.78-17.43,47.26-15.81a308.71,308.71,0,0,0,46.62.13c27.53-1.76,55-4.76,82.49-7,6.75-.55,13.58-.08,22.06-.08-5.87-16-11-31.26-17-46.13-8.15-20.16-17.12-40-25.33-60.13-1.17-2.86-1.5-8,.2-9.78,14.42-15.51,30.2-29.42,51.08-35.76,3.45-1,7.28-.83,10.94-1.19,18.18,51.93,37.33,103.55,53.87,156,4.19,13.28.06,29.18-.25,43.87-4.88,4.52-9.21,12.06-14.73,13.07-35.08,6.41-70.82,7.37-105.78,1.24-43.62-7.65-86.74-18-131.45-16.6l-2.05.06H270.4l-10.85,0-18-.12v-1.67Z" transform="translate(-11.78 -10)"/><path class="cls-4" d="M270.4,541.59h9.13l1,.12,1-.18c44.71-1.42,87.83,9,131.45,16.6,35,6.13,70.7,5.17,105.78-1.24,5.52-1,9.85-8.55,14.73-13.07,13.87-1.71,24.3,5.29,33.88,13.8A273.39,273.39,0,0,1,588,577.87c2.47,2.71,3.33,6.86,4.93,10.35-3.39.88-6.76,2.44-10.16,2.52-9.64.21-19.29-.13-28.94-.34C496,589.17,438.22,587,380.41,586.87c-102.75-.16-205.51,1-308.26,1.47a159.12,159.12,0,0,1-21-1.72c-2.61-.34-5-2-7.56-3,1.59-3.06,2.41-7.15,4.9-9,8-6,17.74-10,24.79-16.78,16.45-15.93,36.35-18.26,57.5-17.6,2.11,2.47,4.26,4.92,6.35,7.43,11.77,14.1,19.74,15.06,34.78,4.53,6-4.16,12.23-7.88,18.35-11.8l48.88,0,2.44,1,18,.13Z" transform="translate(-11.78 -10)"/><path class="cls-5" d="M190.27,540.38c-6.12,3.92-12.39,7.64-18.35,11.8-15,10.53-23,9.57-34.78-4.53-2.09-2.51-4.24-5-6.35-7.43q-3.63-20.26-7.28-40.53c1.56-2.84,3.49-5.54,4.61-8.55,8-21.45,17.65-41.91,32-60,6.21-7.86,11.33-16.57,16.94-24.9,2.05-1.84,4.74-3.32,6.05-5.59,10-17.26,19.53-34.78,29.59-52,4.21-7.21,9.34-13.88,14.05-20.79L259.26,335,230.6,439.76c-2.35,10.7-4.9,21.36-7,32.11-4.08,20.92-7.77,41.88-24.59,57.42C195.59,532.44,193.16,536.66,190.27,540.38Z" transform="translate(-11.78 -10)"/><path class="cls-6" d="M226.76,327.84c-4.72,6.91-9.85,13.58-14.06,20.79-10.06,17.21-19.6,34.73-29.59,52-1.31,2.27-4,3.75-6.05,5.6l-22.13-15.28c1.41-21.31,3.36-42.61,4.09-63.95.76-22.06,9.69-32.94,32-36.57l15.87,3.49c-3.93-8.05-7.32-13.9-9.69-20.13a77.29,77.29,0,0,1-4.28-19.12c9.17,17.27,12.18,39.17,36.08,44.17.42,4.82.85,9.66,1.27,14.49Z" transform="translate(-11.78 -10)"/><path class="cls-7" d="M154.93,390.94l22.13,15.28c-5.61,8.32-10.73,17-16.94,24.89-14.35,18.12-24,38.58-32,60-1.12,3-3.05,5.71-4.61,8.55,3.26-12.67,6.15-25.44,9.86-38,6.07-20.47,12.68-40.77,19-61.16C153.37,397.4,154.09,394.15,154.93,390.94Z" transform="translate(-11.78 -10)"/><path class="cls-8" d="M473.33,326.3c-9.75-20.89-20.5-41.39-29-62.8-7.72-19.5-15.13-38.42-35.46-48.36,14.9,2,27.53,8.92,33,22.85C453.27,267.08,463,296.82,473.33,326.3Z" transform="translate(-11.78 -10)"/><path class="cls-9" d="M488.64,91.39l-39,2.6c5.45-9.08,30.09-11.36,38.88-6.8Z" transform="translate(-11.78 -10)"/><path class="cls-9" d="M445.18,68.11l33.61-20.49q1.56,2.46,3.11,4.92L449.05,74.42Z" transform="translate(-11.78 -10)"/><path class="cls-9" d="M11.78,306.92,46.53,287C45,298.05,23.16,310.53,11.78,306.92Z" transform="translate(-11.78 -10)"/><path class="cls-9" d="M34,340.17,55.7,304.71C60,315.86,48.24,334.28,34,340.17Z" transform="translate(-11.78 -10)"/><path class="cls-9" d="M454,30.7q-7,15.57-14.09,31.15l-4.41-2c1.05-12.05,6.41-22.13,14.26-31.07Z" transform="translate(-11.78 -10)"/><path class="cls-9" d="M75,312.14v34.18C67.14,338.29,66.2,322.9,75,312.14Z" transform="translate(-11.78 -10)"/><path class="cls-8" d="M475.3,330.35l-2.13-4.28Z" transform="translate(-11.78 -10)"/><path class="cls-10" d="M230.24,313.32c-.42-4.83-.85-9.67-1.27-14.49-9.16-24.16-17.94-48.48-27.61-72.44-10.24-25.38-6-50.66-1.28-76.15,1.52-8.11,2.13-16.39,3.28-25.6l22.53-3.3c.12-1.31.23-2.62.35-3.93L202,111c2.14-11.14,1.63-24.49,7.41-34,5.65-9.34,17.63-14.92,27-21.85,1-.73,3.43.55,5.2.86,13.72,2.39,27.39,5.19,41.2,6.95,5.13.66,8.39.91,10.85,6.66A26.76,26.76,0,0,0,305.4,82.23c12.2,6,16.41,16.38,18.51,28.39,2.28,13.1,4,26.3,6.45,39.36,1,5.31,3.34,10.37,5.07,15.55L330.6,183.7l-1.8,4.71c-1.35,1.68-3.13,3.17-4,5.08-14.42,32.45-44.72,42.9-74.75,55.21,1.94,2.67,4.47,6.18,7,9.66,8,10.86,18.67,20.49,15.71,36.16-1,5.39-1.49,10.87-2.22,16.31L266,321.45c-5.8.08-11.86,1.28-17.32,0C242.26,319.85,236.37,316.11,230.24,313.32ZM304,130.42l.78,1.16c0-.21,0-.52-.07-.62a3.69,3.69,0,0,0-.84-.43c-7.07-13.91-18.83-17.18-42.2-10,4.86,3,7.92,6.23,11.39,6.77C283.3,128.9,293.7,129.45,304,130.42Z" transform="translate(-11.78 -10)"/><path class="cls-11" d="M270.59,310.83c.73-5.44,1.21-10.92,2.22-16.31,3-15.67-7.73-25.3-15.71-36.16-2.56-3.48-5.09-7-7-9.66,30-12.31,60.33-22.76,74.75-55.21.85-1.91,2.63-3.4,4-5.08q-2.49,15.6-5,31.18c-2.23,13.79,3.23,23.29,16,28.77C338.71,284.4,310.81,309.58,270.59,310.83Z" transform="translate(-11.78 -10)"/><path class="cls-12" d="M230.24,313.32c6.13,2.79,12,6.53,18.44,8.09,5.46,1.32,11.52.12,17.32,0q-3.37,6.76-6.74,13.54l-32.51-7.15Q228.51,320.58,230.24,313.32Z" transform="translate(-11.78 -10)"/><path class="cls-11" d="M330.6,183.7l4.83-18.17,10.8,10.26Z" transform="translate(-11.78 -10)"/><path class="cls-5" d="M270.4,541.59l-10.85,0Z" transform="translate(-11.78 -10)"/><path class="cls-5" d="M239.15,540.4l2.44-.62v1.67Z" transform="translate(-11.78 -10)"/><path class="cls-5" d="M281.58,541.52l-1,.18-1-.12Z" transform="translate(-11.78 -10)"/><path class="cls-13" d="M304,130.41c-10.32-1-20.72-1.51-30.94-3.13-3.47-.54-6.53-3.77-11.39-6.77,23.37-7.16,35.13-3.89,42.2,10Z" transform="translate(-11.78 -10)"/><path class="cls-13" d="M303.89,130.53a3.69,3.69,0,0,1,.84.43c.11.1,0,.41.07.62l-.78-1.17Z" transform="translate(-11.78 -10)"/></svg>